<?xml version="1.0" encoding="utf-8"?>
<!-- Generator: Adobe Illustrator 25.2.3, SVG Export Plug-In . SVG Version: 6.00 Build 0)  -->
<svg version="1.1" id="Layer_1" xmlns="http://www.w3.org/2000/svg" xmlns:xlink="http://www.w3.org/1999/xlink" x="0px" y="0px"
	 viewBox="0 0 800 800" style="enable-background:new 0 0 800 800;" xml:space="preserve">
<style type="text/css">
	.st0{fill:#FFFFFF;}
</style>
<g>
	<path class="st0" d="M328.61,146.23l146.52-24.42l-117.25,434.9c0,0-20.63,63.27-61.89,88.71s-59.14,30.26-82.52,35.07
		c-23.38,4.81-99.72-7.56-118.28-24.07c-18.57-16.5-44.7-37.14-48.83-42.64c-4.13-5.5-30.46-54.48-28.88-66.71
		c0.6-4.62-5.5-23.38-5.5-23.38l128.6-19.26l4.13,19.26c0,0,18.57,25.45,22.01,23.38c3.44-2.06,20.63,7.56,24.07,5.5
		s32.32-10.32,36.45-22.01C231.33,518.89,328.61,146.23,328.61,146.23z"/>
	<path class="st0" d="M140.85,514.43c9.67,16.92,17.39,28.31,21.62,30.48c4.23,2.18,2.62,12.32,2.62,12.32l-27.53-37.11
		L22.91,558.63l-2.6,2.08l-5.78-20.89l-2.56-16.11"/>
	<polygon class="st0" points="206.99,548.25 193.12,551.54 181.25,549.9 174.96,549.9 159.21,542.21 155.51,549.75 166.58,567.41 
		211.47,567.41 	"/>
	<polygon class="st0" points="640.4,143.34 788.04,118.45 615.51,681.55 514.81,681.55 431.09,414.3 496.14,178.97 563.46,396.77 	
		"/>
</g>
</svg>
